<svg width="13" height="16" viewBox="0 0 13 16" xmlns="http://www.w3.org/2000/svg">
<path d="M11.7801 5.75L12.4846 5.04375C12.6311 4.89687 12.6311 4.65937 12.4846 4.5125L11.9547 3.98125C11.8082 3.83438 11.5713 3.83438 11.4248 3.98125L10.7795 4.62813C9.81001 3.76875 8.58493 3.19375 7.23204 3.04063V1.5H8.10487C8.31061 1.5 8.47894 1.33125 8.47894 1.125V0.375C8.47894 0.16875 8.31061 0 8.10487 0H4.86292C4.65718 0 4.48885 0.16875 4.48885 0.375V1.125C4.48885 1.33125 4.65718 1.5 4.86292 1.5H5.73576V3.04375C2.50628 3.41563 0 6.1625 0 9.5C0 13.0906 2.90217 16 6.4839 16C10.0656 16 12.9678 13.0906 12.9678 9.5C12.9678 8.10312 12.5283 6.80938 11.7801 5.75ZM6.4839 14.5C3.72824 14.5 1.49628 12.2625 1.49628 9.5C1.49628 6.7375 3.72824 4.5 6.4839 4.5C9.23955 4.5 11.4715 6.7375 11.4715 9.5C11.4715 12.2625 9.23955 14.5 6.4839 14.5ZM6.85797 11H6.10983C5.90409 11 5.73576 10.8312 5.73576 10.625V6.375C5.73576 6.16875 5.90409 6 6.10983 6H6.85797C7.06371 6 7.23204 6.16875 7.23204 6.375V10.625C7.23204 10.8312 7.06371 11 6.85797 11Z"/>
</svg>
