<svg width="22" height="22" viewBox="0 0 22 22" xmlns="http://www.w3.org/2000/svg">
<path d="M21.3125 10.6562C21.3125 16.5416 16.5416 21.3125 10.6562 21.3125C4.77095 21.3125 0 16.5416 0 10.6562C0 4.77095 4.77095 0 10.6562 0C16.5416 0 21.3125 4.77095 21.3125 10.6562ZM9.42365 16.2986L17.3299 8.3924C17.5984 8.12393 17.5984 7.68861 17.3299 7.42014L16.3576 6.44789C16.0892 6.17938 15.6539 6.17938 15.3853 6.44789L8.9375 12.8957L5.92715 9.88535C5.65868 9.61688 5.22337 9.61688 4.95486 9.88535L3.9826 10.8576C3.71413 11.1261 3.71413 11.5614 3.9826 11.8299L8.45135 16.2986C8.71986 16.5671 9.15514 16.5671 9.42365 16.2986V16.2986Z"/>
</svg>
